<?xml version="1.0" standalone="no"?>
<!DOCTYPE svg PUBLIC "-//W3C//DTD SVG 20010904//EN"
 "http://www.w3.org/TR/2001/REC-SVG-20010904/DTD/svg10.dtd">
<svg version="1.0" xmlns="http://www.w3.org/2000/svg"
 width="1024.000000pt" height="1024.000000pt" viewBox="0 0 1024.000000 1024.000000"
 preserveAspectRatio="xMidYMid meet">

<g transform="translate(0.000000,1024.000000) scale(0.100000,-0.100000)"
fill="#000000" stroke="none">
<path d="M5030 8726 c-109 -23 -217 -114 -268 -224 -23 -50 -26 -70 -26 -162
-1 -134 24 -206 101 -290 123 -133 282 -162 450 -80 74 37 134 101 175 187 64
135 55 280 -27 408 -55 88 -142 144 -250 164 -70 13 -83 13 -155 -3z m136
-202 c55 -26 80 -94 53 -147 -6 -12 -38 -48 -72 -79 l-62 -57 83 -1 82 0 0
-30 0 -30 -135 0 -135 0 0 28 c0 20 8 32 29 45 49 28 161 143 161 164 0 30
-37 63 -71 63 -21 0 -40 -9 -58 -29 -21 -22 -31 -27 -44 -19 -9 5 -17 17 -17
27 0 18 44 64 70 74 30 11 83 7 116 -9z"/>
<path d="M4370 8415 c-390 -92 -662 -196 -984 -378 -600 -338 -1119 -912
-1405 -1555 -138 -310 -243 -719 -258 -1004 l-6 -118 199 0 c144 0 238 -6 339
-20 77 -11 154 -20 172 -20 43 0 73 30 73 73 0 61 -28 75 -236 123 -102 23
-188 45 -191 48 -17 16 62 360 123 541 122 362 350 739 637 1055 296 327 704
612 1097 769 145 57 373 129 511 161 52 12 101 25 107 29 8 5 7 47 -6 164
l-17 157 -30 -1 c-16 -1 -73 -11 -125 -24z"/>
<path d="M5706 8419 c-13 -67 -28 -291 -19 -300 5 -5 52 -18 104 -29 407 -89
798 -262 1140 -507 380 -271 696 -627 928 -1048 133 -239 241 -545 295 -830
29 -157 32 -146 -44 -160 -114 -20 -302 -69 -327 -85 -36 -22 -49 -61 -31 -97
24 -48 35 -49 205 -25 121 17 205 22 361 22 179 0 203 2 209 17 10 25 -24 303
-57 463 -156 769 -614 1483 -1265 1972 -215 161 -515 331 -757 427 -217 86
-518 172 -690 196 -44 7 -47 6 -52 -16z"/>
<path d="M2972 8299 c-12 -5 -27 -20 -34 -34 -10 -22 -8 -30 9 -53 25 -33 47
-38 78 -18 18 12 25 25 25 50 0 47 -34 71 -78 55z"/>
<path d="M7180 8281 c-25 -47 3 -101 52 -101 25 0 58 36 58 63 0 51 -87 80
-110 38z"/>
<path d="M4587 7969 c-37 -22 -37 -50 -1 -231 35 -179 49 -208 94 -208 30 0
70 39 70 68 0 39 -58 329 -69 351 -17 31 -60 40 -94 20z"/>
<path d="M5572 7970 c-12 -5 -27 -20 -32 -32 -12 -28 -60 -308 -60 -348 0 -52
78 -81 113 -42 16 17 77 309 77 366 0 30 -32 66 -57 65 -10 0 -28 -4 -41 -9z"/>
<path d="M4151 7864 c-12 -15 -21 -32 -21 -39 0 -19 95 -327 109 -352 24 -46
102 -39 121 11 9 25 7 32 -44 211 -39 134 -56 174 -76 185 -33 18 -68 11 -89
-16z"/>
<path d="M6004 7855 c-14 -22 -81 -231 -105 -329 -15 -62 27 -107 87 -92 31 8
44 35 92 201 53 183 54 193 22 225 -28 28 -76 26 -96 -5z"/>
<path d="M7773 7825 c-37 -16 -73 -64 -73 -99 0 -31 36 -66 68 -66 35 0 102
72 102 109 0 49 -48 76 -97 56z"/>
<path d="M2386 7815 c-35 -36 -29 -73 22 -127 47 -50 122 -27 122 37 0 71
-100 134 -144 90z"/>
<path d="M3764 7698 c-21 -10 -44 -47 -44 -70 0 -5 21 -54 46 -107 25 -53 60
-124 76 -159 18 -38 39 -68 53 -74 56 -25 114 29 96 88 -15 48 -138 299 -152
311 -23 17 -53 22 -75 11z"/>
<path d="M6407 7682 c-20 -22 -137 -275 -147 -319 -6 -26 -3 -39 12 -58 24
-30 77 -34 101 -7 27 29 150 305 150 336 0 55 -80 88 -116 48z"/>
<path d="M2247 7642 c-39 -42 -7 -122 48 -122 32 0 65 33 65 65 0 33 -42 75
-73 75 -13 0 -31 -8 -40 -18z"/>
<path d="M7903 7642 c-12 -9 -28 -32 -34 -50 -10 -28 -9 -36 6 -52 56 -62 166
28 114 93 -24 31 -54 34 -86 9z"/>
<path d="M3400 7453 c-15 -19 -19 -35 -15 -53 3 -14 50 -90 103 -170 88 -132
100 -145 129 -148 39 -4 83 34 83 72 0 22 -144 249 -193 304 -29 32 -79 30
-107 -5z"/>
<path d="M6738 7453 c-14 -16 -60 -82 -102 -148 -81 -128 -95 -175 -58 -207
23 -21 55 -30 77 -22 19 8 177 243 201 299 13 31 13 39 0 64 -26 50 -79 56
-118 14z"/>
<path d="M5092 7453 c-5 -10 -12 -36 -16 -58 -14 -79 -39 -171 -57 -206 -31
-62 -103 -116 -188 -143 -42 -13 -95 -27 -119 -31 -62 -10 -91 -47 -59 -73 7
-6 47 -16 88 -23 201 -31 281 -104 324 -296 20 -88 34 -123 50 -123 22 0 34
24 55 118 44 200 103 258 300 297 101 21 120 29 120 55 0 26 -28 39 -127 61
-104 23 -147 43 -196 92 -49 49 -72 101 -96 218 -25 118 -29 129 -52 129 -10
0 -22 -8 -27 -17z"/>
<path d="M3113 7250 c-27 -11 -43 -40 -43 -76 0 -22 27 -54 127 -156 108 -109
132 -128 158 -128 16 0 35 4 41 8 16 10 34 48 34 71 0 23 -219 263 -256 280
-29 13 -31 13 -61 1z"/>
<path d="M7079 7253 c-17 -4 -202 -198 -231 -242 -38 -56 -9 -121 55 -121 34
0 71 33 225 202 68 74 69 122 5 156 -22 12 -27 13 -54 5z"/>
<path d="M8302 7078 c-17 -17 -15 -64 4 -82 33 -34 94 -7 94 42 0 43 -67 71
-98 40z"/>
<path d="M1850 7061 c-23 -43 2 -91 48 -91 45 0 69 61 36 94 -22 23 -71 20
-84 -3z"/>
<path d="M3945 7006 c-46 -46 -22 -106 43 -106 53 0 83 69 45 102 -34 30 -61
31 -88 4z"/>
<path d="M4215 7018 c-28 -16 -35 -28 -35 -65 0 -32 37 -73 65 -73 29 0 65 41
65 74 0 51 -54 87 -95 64z"/>
<path d="M5941 7012 c-48 -38 -19 -122 43 -122 37 0 49 7 65 37 17 33 14 51
-14 78 -28 29 -64 32 -94 7z"/>
<path d="M6195 6991 c-35 -68 44 -134 95 -79 42 45 14 108 -48 108 -25 0 -35
-6 -47 -29z"/>
<path d="M4438 6985 c-25 -56 35 -101 75 -57 22 24 21 45 -1 65 -27 25 -60 21
-74 -8z"/>
<path d="M5711 6996 c-22 -26 -9 -70 23 -81 24 -8 31 -6 47 14 23 28 24 45 3
65 -19 20 -58 21 -73 2z"/>
<path d="M2862 6970 c-14 -14 -22 -33 -22 -55 0 -28 8 -41 48 -74 26 -22 79
-66 117 -98 96 -81 115 -93 146 -93 49 0 83 64 59 110 -9 18 -170 154 -243
208 -39 27 -77 28 -105 2z"/>
<path d="M7290 6973 c-34 -23 -145 -117 -202 -172 -58 -55 -65 -96 -22 -130
50 -40 63 -34 225 103 134 113 146 134 103 185 -30 35 -66 40 -104 14z"/>
<path d="M2650 6710 c-20 -20 -26 -54 -14 -84 7 -19 255 -194 295 -210 36 -13
76 5 90 41 19 51 -6 80 -157 181 -146 98 -178 108 -214 72z"/>
<path d="M7399 6648 c-171 -115 -195 -144 -173 -203 10 -25 63 -45 91 -34 39
15 283 189 299 214 29 44 -7 105 -62 105 -25 0 -63 -20 -155 -82z"/>
<path d="M3679 6631 c-34 -34 -39 -83 -13 -132 25 -50 64 -59 239 -59 l156 0
16 -37 c8 -21 53 -140 98 -264 46 -124 101 -272 123 -328 l41 -103 -152 -168
-152 -167 -27 19 c-15 11 -66 37 -113 59 -278 128 -581 127 -892 -3 -276 -114
-510 -391 -589 -693 -32 -123 -43 -333 -24 -453 63 -397 331 -720 707 -855
126 -46 230 -60 398 -54 111 3 172 11 235 27 169 45 333 131 449 236 152 138
337 458 301 523 -10 19 -20 21 -135 21 l-125 0 -36 -72 c-86 -172 -209 -300
-358 -373 -138 -68 -194 -80 -376 -80 -148 1 -159 2 -243 32 -124 45 -207 94
-289 171 -155 146 -234 306 -258 521 -17 151 26 345 105 479 111 185 317 334
524 378 169 35 422 -1 529 -76 21 -15 19 -17 -76 -121 -53 -58 -178 -192 -277
-298 -99 -106 -188 -206 -197 -224 -41 -75 -11 -195 61 -243 75 -49 172 -45
246 11 43 33 49 35 125 35 65 0 80 -3 80 -15 0 -8 -12 -62 -26 -119 -29 -114
-27 -143 11 -182 18 -18 35 -24 65 -24 81 0 99 27 146 223 l28 117 291 0 290
0 25 -58 c30 -69 106 -148 175 -182 41 -20 65 -25 135 -25 73 0 93 4 144 29
74 36 139 103 174 179 l26 57 133 0 c151 0 174 8 193 66 9 25 9 43 0 68 -19
59 -41 66 -200 66 l-140 0 -17 35 c-16 34 -16 34 19 77 20 24 111 126 203 228
246 272 650 721 728 809 37 42 70 75 74 74 9 -2 59 -139 358 -978 l64 -179
-30 -46 c-28 -41 -30 -51 -27 -116 3 -60 8 -77 32 -109 82 -107 254 -95 323
23 45 76 24 198 -42 250 -18 14 -51 97 -134 333 -61 172 -111 317 -111 321 0
14 200 8 271 -8 160 -36 278 -103 399 -224 80 -80 103 -110 143 -190 68 -136
90 -227 90 -375 0 -142 -21 -231 -81 -352 -108 -213 -286 -359 -517 -424 -33
-9 -101 -14 -200 -14 -141 1 -155 2 -236 31 -125 44 -212 97 -301 182 -124
119 -201 261 -234 430 -38 201 9 430 119 585 46 64 171 190 220 221 15 10 27
26 27 35 -1 32 -85 226 -100 229 -26 5 -172 -98 -250 -177 -145 -146 -238
-318 -292 -541 -8 -36 -13 -113 -12 -220 1 -143 5 -178 26 -260 79 -295 281
-551 538 -680 170 -85 317 -120 504 -120 174 0 329 36 481 112 105 53 163 95
258 187 232 225 358 561 327 870 -29 282 -135 508 -323 688 -97 92 -163 137
-289 198 -164 78 -367 114 -543 95 -127 -14 -123 -15 -140 28 -44 103 -127
344 -121 349 4 4 40 16 80 28 197 57 324 199 334 376 6 97 -15 170 -63 227
-84 97 -158 116 -446 110 -236 -5 -271 -14 -320 -81 -43 -59 -40 -110 16 -258
25 -66 45 -124 45 -128 0 -7 -76 -26 -610 -151 -190 -44 -372 -87 -405 -95
-33 -8 -163 -39 -288 -70 -243 -59 -253 -60 -262 -45 -3 5 -52 137 -109 292
-58 156 -107 290 -111 300 -6 14 6 17 109 20 97 2 119 6 143 24 40 30 57 85
39 128 -28 68 -15 66 -479 66 l-419 0 -29 -29z m2965 -226 c35 -54 13 -141
-50 -194 -41 -34 -145 -71 -198 -71 -31 0 -32 1 -80 133 -27 72 -51 138 -53
145 -4 9 36 12 180 12 l185 0 16 -25z m-590 -517 c-152 -164 -309 -336 -409
-448 -66 -73 -187 -208 -270 -299 -82 -92 -192 -215 -244 -274 l-95 -109 -60
7 c-34 4 -64 10 -67 14 -3 3 -44 114 -92 246 -47 132 -111 309 -142 394 -31
85 -53 157 -48 161 4 4 76 21 158 39 83 18 215 48 295 67 80 19 318 75 530
125 212 49 401 93 420 98 55 14 56 13 24 -21z m-1549 -675 c48 -131 112 -300
141 -377 l54 -138 -28 -32 c-15 -18 -38 -49 -51 -69 l-23 -37 -494 0 c-272 0
-494 3 -494 8 0 9 391 448 405 453 18 7 107 -116 158 -221 l52 -105 109 -3
c156 -4 169 12 121 150 -45 128 -119 250 -208 345 l-40 41 99 111 c55 60 102
110 105 110 3 1 45 -106 94 -236z m483 -673 c96 -59 95 -183 -3 -230 -62 -30
-109 -23 -152 24 -18 19 -35 47 -39 61 -27 110 97 204 194 145z"/>
<path d="M2490 6420 c-28 -28 -35 -66 -16 -94 21 -33 299 -176 342 -176 60 0
88 85 42 127 -37 33 -293 163 -322 163 -14 0 -35 -9 -46 -20z"/>
<path d="M7532 6362 c-79 -43 -148 -86 -154 -96 -29 -52 4 -116 59 -116 14 0
90 34 169 76 184 96 213 130 159 188 -39 43 -72 35 -233 -52z"/>
<path d="M3387 6343 c-2 -5 -10 -33 -17 -63 -19 -82 -38 -108 -100 -136 -83
-39 -85 -40 -85 -59 0 -11 16 -23 49 -36 84 -31 108 -62 141 -182 22 -79 43
-75 65 13 27 105 54 139 136 168 35 13 50 24 52 38 2 17 -8 25 -57 43 -73 26
-105 62 -127 139 -8 31 -17 63 -19 70 -5 13 -31 17 -38 5z"/>
<path d="M7820 6143 c-88 -31 -309 -129 -324 -143 -29 -28 -25 -78 8 -107 15
-12 34 -23 41 -23 24 0 337 129 357 147 27 24 24 88 -4 107 -30 18 -59 26 -78
19z"/>
<path d="M2340 6120 c-26 -26 -26 -81 -2 -104 24 -21 333 -146 361 -146 28 0
71 43 71 70 0 54 -15 64 -214 146 -141 58 -185 65 -216 34z"/>
<path d="M1387 6092 c-37 -41 -11 -102 42 -102 55 0 80 61 41 100 -25 25 -62
26 -83 2z"/>
<path d="M8770 6092 c-25 -20 -30 -63 -10 -87 7 -8 27 -15 45 -15 58 0 85 60
45 100 -25 25 -51 25 -80 2z"/>
<path d="M2245 5825 c-30 -29 -33 -74 -7 -104 11 -14 69 -37 182 -71 91 -27
172 -50 181 -50 48 0 77 92 40 129 -17 17 -321 121 -356 121 -9 0 -27 -11 -40
-25z"/>
<path d="M7776 5796 c-96 -32 -164 -60 -173 -71 -32 -45 -2 -125 47 -125 11 0
61 13 112 29 51 16 125 39 165 51 77 22 103 45 103 90 -1 29 -16 52 -47 68
-30 16 -28 17 -207 -42z"/>
<path d="M1340 5446 c-96 -20 -148 -64 -201 -166 -35 -69 -34 -185 4 -262 103
-209 382 -224 523 -28 l36 50 155 0 155 0 29 29 c42 42 40 92 -5 137 l-34 34
-155 0 c-153 0 -155 0 -161 23 -9 36 -62 104 -108 137 -65 47 -154 65 -238 46z
m108 -176 c51 0 62 -3 62 -17 0 -9 -25 -68 -55 -130 -49 -99 -59 -113 -80
-113 -14 0 -25 6 -25 13 0 6 22 53 49 104 l48 92 -54 7 c-29 3 -59 4 -68 0
-11 -4 -15 2 -15 26 0 30 1 30 38 24 20 -3 65 -6 100 -6z"/>
<path d="M8779 5450 c-99 -16 -184 -80 -223 -168 l-19 -42 -139 0 c-83 0 -148
-5 -161 -11 -61 -31 -76 -105 -31 -158 l26 -31 152 0 c152 0 153 0 164 -24 20
-44 84 -107 136 -133 144 -73 327 -13 399 130 113 222 -64 475 -304 437z m97
-187 c32 -20 38 -46 20 -82 -14 -27 -14 -32 1 -58 33 -58 -10 -116 -87 -116
-42 0 -90 25 -90 47 0 22 29 28 53 11 33 -23 66 -19 79 10 15 32 1 48 -41 47
-37 -1 -46 10 -31 38 7 13 21 20 39 20 36 0 46 23 20 46 -16 15 -25 16 -56 6
-39 -12 -53 -9 -53 13 0 41 94 53 146 18z"/>
<path d="M1727 4843 c-12 -12 -7 -95 14 -238 51 -354 137 -628 294 -950 168
-342 374 -626 665 -914 469 -464 1015 -767 1660 -921 116 -27 158 -27 165 2 6
32 35 248 35 269 0 21 -27 31 -160 64 -564 141 -1054 424 -1490 864 -80 80
-185 196 -234 256 -344 429 -548 910 -606 1430 -17 163 5 145 -179 145 -87 0
-161 -3 -164 -7z"/>
<path d="M8186 4828 c-3 -13 -7 -61 -11 -107 -13 -183 -75 -453 -152 -666 -43
-116 -159 -354 -233 -475 -284 -466 -792 -935 -1276 -1178 -234 -118 -509
-217 -741 -267 -46 -10 -88 -23 -93 -30 -12 -15 17 -282 33 -302 12 -16 50
-10 247 38 490 121 912 330 1315 654 123 98 368 336 479 465 426 491 685 1081
761 1725 8 71 12 137 9 147 -5 16 -21 18 -169 18 -163 0 -165 0 -169 -22z"/>
<path d="M1367 4342 c-22 -25 -21 -55 2 -76 26 -24 62 -17 80 15 13 24 13 29
-2 53 -21 31 -56 34 -80 8z"/>
<path d="M8797 4342 c-33 -36 -8 -92 40 -92 25 0 53 30 53 57 0 46 -62 69 -93
35z"/>
<path d="M5096 3552 c-3 -5 -15 -51 -26 -103 -46 -210 -121 -284 -324 -320
-79 -13 -117 -38 -100 -66 8 -12 42 -25 112 -40 206 -45 262 -104 312 -330 20
-94 25 -103 50 -103 20 0 31 27 50 125 39 195 110 268 298 307 103 21 122 30
122 59 0 24 -21 34 -105 49 -105 19 -169 46 -213 91 -52 51 -75 103 -101 223
-12 55 -24 103 -27 108 -7 11 -41 10 -48 0z"/>
<path d="M3253 3241 c-26 -21 -74 -63 -105 -93 -47 -44 -58 -60 -58 -86 0 -43
30 -72 75 -72 31 0 47 11 130 93 81 78 95 97 95 124 0 22 -8 38 -26 52 -37 29
-55 26 -111 -18z"/>
<path d="M6912 3270 c-28 -12 -46 -51 -38 -83 3 -13 46 -63 96 -111 84 -81 93
-87 127 -84 46 4 79 43 69 82 -3 14 -37 55 -74 90 -113 108 -138 122 -180 106z"/>
<path d="M1856 3244 c-34 -33 -9 -94 38 -94 28 0 56 29 56 57 0 44 -63 69 -94
37z"/>
<path d="M8306 3244 c-34 -33 -9 -94 38 -94 26 0 56 29 56 53 0 23 -36 57 -59
57 -11 0 -27 -7 -35 -16z"/>
<path d="M4172 3134 c-16 -11 -22 -25 -22 -54 0 -29 6 -43 22 -54 34 -24 73
-20 97 10 27 35 27 65 -2 92 -27 26 -64 28 -95 6z"/>
<path d="M5970 3130 c-42 -42 -8 -120 52 -120 31 0 68 41 68 76 0 33 -34 64
-70 64 -17 0 -39 -9 -50 -20z"/>
<path d="M3917 3122 c-21 -23 -22 -51 -1 -80 31 -45 104 -17 104 40 0 51 -69
78 -103 40z"/>
<path d="M5734 3132 c-23 -15 -35 -51 -24 -72 26 -49 92 -40 98 14 6 45 -40
81 -74 58z"/>
<path d="M6237 3122 c-37 -40 -13 -92 42 -92 39 0 55 65 23 93 -24 22 -45 21
-65 -1z"/>
<path d="M4435 3106 c-19 -28 -9 -58 25 -76 15 -8 25 -5 47 14 27 24 27 26 13
53 -21 38 -63 43 -85 9z"/>
<path d="M3556 3028 c-13 -13 -57 -61 -96 -107 -63 -74 -71 -88 -68 -119 4
-44 44 -78 82 -68 16 4 56 42 103 97 114 134 121 152 78 194 -30 31 -66 32
-99 3z"/>
<path d="M6592 3027 c-39 -42 -30 -64 91 -215 51 -64 92 -88 126 -77 27 8 54
60 47 89 -5 20 -143 188 -175 213 -25 20 -66 15 -89 -10z"/>
<path d="M3805 2756 c-66 -100 -95 -163 -88 -185 12 -32 37 -51 68 -51 18 0
39 8 48 18 23 25 94 141 118 190 31 65 7 112 -57 112 -32 0 -38 -5 -89 -84z"/>
<path d="M6296 2818 c-9 -12 -16 -32 -16 -43 0 -23 99 -197 132 -232 42 -45
118 -16 118 45 0 18 -26 70 -68 138 -67 108 -68 109 -109 112 -33 2 -44 -1
-57 -20z"/>
<path d="M2280 2785 c-61 -45 -77 -98 -40 -135 11 -11 31 -20 45 -20 30 0 88
50 105 91 11 27 11 33 -7 57 -27 36 -60 38 -103 7z"/>
<path d="M7879 2790 c-39 -23 -32 -85 16 -132 36 -36 77 -37 104 -2 30 38 26
61 -18 105 -39 39 -70 48 -102 29z"/>
<path d="M2409 2611 c-29 -28 -49 -57 -49 -70 0 -26 42 -71 66 -71 46 0 114
73 114 123 0 32 -32 67 -61 67 -13 0 -43 -21 -70 -49z"/>
<path d="M7730 2647 c-20 -10 -26 -21 -28 -54 -3 -36 2 -46 36 -82 44 -46 80
-53 112 -21 41 41 10 119 -61 155 -33 18 -28 18 -59 2z"/>
<path d="M4221 2628 c-11 -11 -34 -62 -50 -112 -45 -139 -45 -143 -17 -171 57
-57 99 -20 150 133 30 88 35 115 26 131 -23 44 -78 54 -109 19z"/>
<path d="M5950 2632 c-31 -25 -29 -58 9 -160 53 -143 68 -161 125 -146 29 7
46 31 46 64 0 24 -51 173 -74 219 -24 45 -67 54 -106 23z"/>
<path d="M4612 2512 c-26 -26 -69 -255 -54 -288 19 -40 101 -45 117 -7 4 10
18 73 30 141 22 122 22 123 3 147 -24 30 -70 33 -96 7z"/>
<path d="M5530 2510 c-25 -25 -25 -27 2 -167 25 -132 43 -166 91 -161 18 2 37
13 49 28 18 25 18 28 -2 129 -11 56 -20 111 -20 122 0 28 -44 69 -75 69 -14 0
-34 -9 -45 -20z"/>
<path d="M5025 2247 c-189 -50 -307 -221 -292 -425 21 -282 300 -442 554 -317
244 120 292 447 96 644 -42 42 -75 64 -118 80 -74 28 -173 35 -240 18z m127
-217 c50 -14 88 -61 88 -109 0 -49 -31 -95 -99 -146 l-54 -40 87 -3 87 -3 -3
-27 -3 -27 -137 -3 -138 -3 0 31 c0 16 4 30 9 30 5 0 48 32 95 71 93 76 108
103 82 144 -23 35 -83 35 -116 0 -22 -23 -25 -24 -42 -8 -10 9 -18 21 -18 28
0 18 35 45 77 61 47 16 41 16 85 4z"/>
<path d="M3007 2122 c-35 -38 -9 -102 41 -102 28 0 64 47 56 74 -13 46 -67 61
-97 28z"/>
<path d="M7136 2118 c-9 -12 -16 -29 -16 -38 0 -9 7 -26 16 -38 23 -33 73 -27
94 11 13 24 13 30 0 55 -21 37 -71 43 -94 10z"/>
</g>
</svg>
